<?xml version="1.0" encoding="UTF-8"?>
<svg width="24px" height="24px" viewBox="0 0 24 24" version="1.1" xmlns="http://www.w3.org/2000/svg" xmlns:xlink="http://www.w3.org/1999/xlink">
    <title>favicon</title>
    <g id="favicon" stroke="none" stroke-width="1" fill="none" fill-rule="evenodd">
        <path d="M10.1706953,20.9550531 C10.3121965,20.5907688 10.3796889,20.2019312 10.3691578,19.81129 C10.3907437,18.7286773 10.6800882,17.6682324 11.2113579,16.7247355 C11.7413476,15.7827514 12.4970877,14.9872722 13.4106785,14.4097469 C13.748955,14.2282739 14.0469106,13.980123 14.2865085,13.6801892 C14.5261065,13.3802554 14.702343,13.0348806 14.8045707,12.6648944 C14.9068566,12.2949082 14.9329808,11.9079906 14.8813724,11.5275896 C14.8298222,11.1471886 14.7015866,10.7812752 14.5045205,10.4518426 C14.2412421,10.0118621 13.8622956,9.65112696 13.4106785,9.41112174 C13.1517638,9.23145237 12.9030311,9.03799361 12.665935,8.83074546 L12.0717112,8.24891461 C10.9829311,7.10427878 10.3723578,5.58706757 10.364794,4.00733862 C10.3760234,3.61661594 10.3089383,3.22759801 10.1673788,2.86323226 C10.0258776,2.49886651 9.8128111,2.16653054 9.540747,1.88583789 C9.26996292,1.60545942 8.94541767,1.38251929 8.5865444,1.23031816 C8.22767114,1.07812285 7.84180092,1 7.45197425,1 C7.06238031,1.00055316 6.67685919,1.07922833 6.31821865,1.23138291 C5.95957812,1.3835375 5.63509105,1.60607616 5.36395788,1.88583789 C5.09241742,2.1670251 4.87965351,2.49954725 4.73816389,2.86394791 C4.59667426,3.22834857 4.52928079,3.61730831 4.53993412,4.00806591 C4.54628771,4.51530605 4.68599693,5.01193941 4.94503385,5.44809727 C5.20319801,5.8835162 5.57172967,6.24305276 6.01339747,6.49027269 C7.80182914,7.62199187 9.04619078,9.78564625 9.04619078,11.9136926 C9.04176886,13.4796903 8.44289037,14.9855849 7.37051793,16.1268461 L6.0177612,17.328385 C5.57632614,17.5749068 5.20756174,17.9341873 4.94867029,18.3705604 C4.68902827,18.8062354 4.55011616,19.3036426 4.54357056,19.81129 C4.53244595,20.2020476 4.59961832,20.5910015 4.74113704,20.955344 C4.88265576,21.3196865 5.09567567,21.6520283 5.36756523,21.9328198 C5.63846567,22.2131459 5.96301092,22.4360453 6.32188419,22.5881941 C6.68069927,22.740401 7.06656949,22.8186574 7.45633798,22.8186574 C7.84604828,22.8181918 8.23174395,22.7395865 8.59050085,22.5874377 C8.94931594,22.4352308 9.27391937,22.2126805 9.54511073,21.9328198 C9.81653482,21.6516792 10.0292522,21.3192792 10.1706953,20.9550531 Z" id="Path" fill="#4F46E5" fill-rule="nonzero"></path>
        <path d="M14.1212104,5.62555568 C13.8005052,5.14409065 13.6295633,4.57753286 13.6295633,3.99861116 C13.6300869,3.22312373 13.9372936,2.47930536 14.4841564,1.9294752 C14.9596286,1.45109388 15.5867841,1.15309757 16.2580423,1.08661176 C16.9292424,1.02012595 17.6026534,1.18929909 18.162782,1.56510363 C18.6425597,1.88722265 19.0160951,2.34429151 19.2362599,2.87858678 C19.4564247,3.41349297 19.5139096,4.00146213 19.4014999,4.56888103 C19.289032,5.13629411 19.0117314,5.65793456 18.6042171,6.06847441 C18.1979828,6.47787969 17.6789315,6.75692576 17.1133919,6.87003368 C16.5477941,6.9831416 15.9613668,6.92513306 15.4288752,6.70339733 C14.8959181,6.48148704 14.4408101,6.10632251 14.1212104,5.62555568 Z" id="Path" fill="#4F46E5" fill-rule="nonzero"></path>
        <path d="M14.9248933,17.3770843 C15.4041474,17.0556227 15.9678251,16.8839826 16.5438377,16.8839826 L16.5438377,16.882528 C16.9267405,16.8829935 17.3058033,16.9590388 17.6592074,17.1063002 C18.0126696,17.2535616 18.3335494,17.4691881 18.6035189,17.7407285 C19.080562,18.2206808 19.3772957,18.8505709 19.4435662,19.5239819 C19.5098368,20.1974511 19.3415131,20.8731313 18.9671631,21.436809 C18.6475635,21.9182741 18.1921645,22.293904 17.6587419,22.5161053 C17.1263085,22.737841 16.5398812,22.7958495 15.9742834,22.6827416 C15.4087439,22.5696337 14.8896926,22.2905876 14.4834001,21.8812114 C14.0757694,21.4705552 13.7983524,20.9488275 13.6859427,20.3812515 C13.573533,19.8136755 13.6310761,19.2255609 13.8514154,18.6905674 C14.0715802,18.1562721 14.4451738,17.699244 14.9248933,17.3770843 Z" id="Path" fill="#4F46E5" fill-rule="nonzero"></path>
        <path d="M23.5090511,10.2787479 C23.8289417,10.7600384 23.9998836,11.3256361 24,11.9043251 C23.9994764,12.680022 23.6923278,13.4240091 23.1454068,13.9741302 C22.8754373,14.2455543 22.5544994,14.4610644 22.2010954,14.608384 C21.8476331,14.7556454 21.4686285,14.8317488 21.0857256,14.8322725 C20.5091313,14.8322725 19.9455117,14.6606324 19.4667813,14.339229 C18.9870618,14.0170693 18.6134682,13.559983 18.3933034,13.0257459 C18.172964,12.4906942 18.115421,11.9025796 18.2278307,11.3350618 C18.3402986,10.7674858 18.6177155,10.2456999 19.0253462,9.83510188 C19.4316387,9.42555114 19.9508064,9.1463887 20.5165787,9.03328078 C21.0822928,8.92023105 21.6688365,8.97829777 22.2013863,9.20020805 C22.7344597,9.42229289 23.1895678,9.79769015 23.5090511,10.2787479 Z" id="Path" fill="#4F46E5" fill-rule="nonzero"></path>
        <path d="M1.29476673,9.4707594 C1.77404989,9.14929785 2.33697124,8.97765775 2.91371107,8.97765775 C3.29651504,8.97841413 3.67540329,9.05475034 4.02870262,9.20212809 C4.38199613,9.34950585 4.70277112,9.56507418 4.97266499,9.83655645 C5.44948701,10.3163342 5.74604619,10.9459915 5.81231673,11.6191116 C5.87858726,12.2922899 5.71043815,12.9676792 5.33632091,13.5311824 C5.01678523,14.0122401 4.56167713,14.3875792 4.02864444,14.6097804 C3.49600739,14.8304106 2.90983026,14.8878373 2.34449431,14.7747876 C1.77915837,14.6617379 1.26014198,14.3833318 0.853302575,13.9748284 C0.445805702,13.5642885 0.168481846,13.0426772 0.0560546707,12.4752175 C-0.0563666861,11.9078161 0.00111238356,11.3198178 0.221288814,10.7849407 C0.441360514,10.2504127 0.814913375,9.79309369 1.29476673,9.4707594 Z" id="Path" fill="#4F46E5" fill-rule="nonzero"></path>
    </g>
</svg>