<?xml version="1.0" encoding="UTF-8"?>
<svg width="42px" height="38px" viewBox="0 0 42 38" version="1.1" xmlns="http://www.w3.org/2000/svg" xmlns:xlink="http://www.w3.org/1999/xlink">
    <title>logo</title>
    <g id="logo" stroke="none" stroke-width="1" fill="none" fill-rule="evenodd">
        <g id="LeadingContent" fill="#4F46E5" fill-rule="nonzero">
            <path d="M17.4805019,34.2970007 C17.7237019,33.6709007 17.8397019,33.0026007 17.8216019,32.3312007 C17.8587019,30.4705007 18.3560019,28.6479007 19.2691019,27.0263007 C20.1800019,25.4073007 21.4789019,24.0401007 23.0491019,23.0475007 C23.6305019,22.7356007 24.1426019,22.3091007 24.5544019,21.7936007 C24.9662019,21.2781007 25.2691019,20.6845007 25.4448019,20.0486007 C25.6206019,19.4127007 25.6655019,18.7477007 25.5768019,18.0939007 C25.4882019,17.4401007 25.2678019,16.8112007 24.9291019,16.2450007 C24.4766019,15.4888007 23.8253019,14.8688007 23.0491019,14.4563007 C22.6041019,14.1475007 22.1766019,13.8150007 21.7691019,13.4588007 L20.7478019,12.4588007 C18.8765019,10.4915007 17.8271019,7.88385072 17.8141019,5.16875072 C17.8334019,4.49721072 17.7181019,3.82860072 17.4748019,3.20236072 C17.2316019,2.57612072 16.8654019,2.00493072 16.3978019,1.52250072 C15.9324019,1.04061072 15.3746019,0.65744072 14.7578019,0.39585072 C14.1410019,0.13427072 13.4778019,0 12.8078019,0 C12.1382019,0.000950720072 11.4756019,0.13617072 10.8592019,0.39768072 C10.2428019,0.65919072 9.68510187,1.04167072 9.21910187,1.52250072 C8.75240187,2.00578072 8.38672187,2.57729072 8.14354187,3.20359072 C7.90036187,3.82989072 7.78453187,4.49840072 7.80284187,5.17000072 C7.81376187,6.04180072 8.05388187,6.89537072 8.49909187,7.64500072 C8.94280187,8.39336072 9.57620187,9.01130072 10.3353019,9.43620072 C13.4091019,11.3813007 15.5478019,15.1000007 15.5478019,18.7575007 C15.5402019,21.4490007 14.5109019,24.0372007 12.6678019,25.9987007 L10.3428019,28.0638007 C9.58410187,28.4875007 8.95030187,29.1050007 8.50534187,29.8550007 C8.05909187,30.6038007 7.82034187,31.4587007 7.80909187,32.3312007 C7.78997187,33.0028007 7.90542187,33.6713007 8.14865187,34.2975007 C8.39188187,34.9237007 8.75800187,35.4949007 9.22530187,35.9775007 C9.69090187,36.4593007 10.2487019,36.8424007 10.8655019,37.1039007 C11.4822019,37.3655007 12.1454019,37.5 12.8153019,37.5 C13.4851019,37.4992007 14.1480019,37.3641007 14.7646019,37.1026007 C15.3813019,36.8410007 15.9392019,36.4585007 16.4053019,35.9775007 C16.8718019,35.4943007 17.2374019,34.9230007 17.4805019,34.2970007 Z" id="Path"></path>
            <path d="M24.2703019,7.95000072 C23.7191019,7.12250072 23.4253019,6.14875072 23.4253019,5.15375072 C23.4262019,3.82091072 23.9542019,2.54250072 24.8941019,1.59750072 C25.7113019,0.77530072 26.7892019,0.26313072 27.9429019,0.14886072 C29.0965019,0.0345907201 30.2539019,0.32535072 31.2166019,0.97125072 C32.0412019,1.52488072 32.6832019,2.31045072 33.0616019,3.22875072 C33.4400019,4.14810072 33.5388019,5.15865072 33.3456019,6.13388072 C33.1523019,7.10910072 32.6757019,8.00565072 31.9753019,8.71125072 C31.2771019,9.41490072 30.3850019,9.89450072 29.4130019,10.0889007 C28.4409019,10.2833007 27.4330019,10.1836007 26.5178019,9.80250072 C25.6018019,9.42110072 24.8196019,8.77630072 24.2703019,7.95000072 Z" id="Path"></path>
            <path d="M25.6516019,28.1475007 C26.4753019,27.5950007 27.4441019,27.3000007 28.4341019,27.3000007 L28.4341019,27.2975007 C29.0922019,27.2983007 29.7437019,27.4290007 30.3511019,27.6821007 C30.9586019,27.9352007 31.5101019,28.3058007 31.9741019,28.7725007 C32.7940019,29.5974007 33.3040019,30.6800007 33.4179019,31.8374007 C33.5318019,32.9949007 33.2425019,34.1562007 32.5991019,35.1250007 C32.0498019,35.9525007 31.2671019,36.5981007 30.3503019,36.9800007 C29.4352019,37.3611007 28.4273019,37.4608007 27.4552019,37.2664007 C26.4832019,37.0720007 25.5911019,36.5924007 24.8928019,35.8888007 C24.1922019,35.1830007 23.7154019,34.2863007 23.5222019,33.3108007 C23.3290019,32.3353007 23.4279019,31.3245007 23.8066019,30.4050007 C24.1850019,29.4867007 24.8271019,28.7012007 25.6516019,28.1475007 Z" id="Path"></path>
            <path d="M40.4053019,15.9475007 C40.9551019,16.7747007 41.2489019,17.7468007 41.2491019,18.7414007 C41.2482019,20.0746007 40.7203019,21.3533007 39.7803019,22.2988007 C39.3163019,22.7653007 38.7647019,23.1357007 38.1573019,23.3889007 C37.5498019,23.6420007 36.8984019,23.7728007 36.2403019,23.7737007 C35.2493019,23.7737007 34.2806019,23.4787007 33.4578019,22.9263007 C32.6333019,22.3726007 31.9912019,21.5870007 31.6128019,20.6688007 C31.2341019,19.7492007 31.1352019,18.7384007 31.3284019,17.7630007 C31.5217019,16.7875007 31.9985019,15.8907007 32.6991019,15.1850007 C33.3974019,14.4811007 34.2897019,14.0013007 35.2621019,13.8069007 C36.2344019,13.6126007 37.2425019,13.7124007 38.1578019,14.0938007 C39.0740019,14.4755007 39.8562019,15.1207007 40.4053019,15.9475007 Z" id="Path"></path>
            <path d="M2.22533187,14.5588007 C3.04908187,14.0063007 4.01658187,13.7113007 5.00783187,13.7113007 C5.66576187,13.7126007 6.31696187,13.8438007 6.92418187,14.0971007 C7.53139187,14.3504007 8.08271187,14.7209007 8.54658187,15.1875007 C9.36610187,16.0121007 9.87580187,17.0943007 9.98970187,18.2512007 C10.1036019,19.4082007 9.81460187,20.5690007 9.17160187,21.5375007 C8.62241187,22.3643007 7.84021187,23.0094007 6.92408187,23.3913007 C6.00863187,23.7705007 5.00116187,23.8692007 4.02951187,23.6749007 C3.05786187,23.4806007 2.16582187,23.0021007 1.46658187,22.3000007 C0.766211868,21.5944007 0.289571868,20.6979007 0.0963418676,19.7226007 C-0.0968781324,18.7474007 0.00191186761,17.7368007 0.380331868,16.8175007 C0.758571868,15.8988007 1.40060187,15.1128007 2.22533187,14.5588007 Z" id="Path"></path>
        </g>
    </g>
</svg>